<?xml version="1.0" encoding="utf-8"?>
<!-- Generator: Adobe Illustrator 22.0.1, SVG Export Plug-In . SVG Version: 6.00 Build 0)  -->
<svg version="1.1" id="图层_1" xmlns="http://www.w3.org/2000/svg" xmlns:xlink="http://www.w3.org/1999/xlink" x="0px" y="0px"
	 viewBox="0 0 244.3 190.4" style="enable-background:new 0 0 244.3 190.4;" xml:space="preserve">
<style type="text/css">
	.st0{display:none;fill:#FFFFFF;}
	.st1{display:none;fill:none;}
	.st2{fill:#AB8EEB;fill-opacity:0;}
	.st3{fill:url(#SVGID_1_);}
	.st4{fill:#F757AF;}
	.st5{fill:#AB8EEB;}
	.st6{fill:#FFBD88;}
	.st7{fill:#8E8E8E;}
</style>
<rect x="-175" y="-121.9" class="st0" width="595.3" height="841.9"/>
<rect x="-175" y="-121.9" class="st1" width="595.3" height="841.9"/>
<g transform="translate(103.18000030517578,72.62424087524414)">
	<g transform="translate(36.81999969482422,0)">
		<rect x="-69.9" y="-67.4" class="st2" width="105" height="92.3"/>
		<g>
			<g>
				
					<linearGradient id="SVGID_1_" gradientUnits="userSpaceOnUse" x1="-286.1894" y1="429.089" x2="-220.3484" y2="363.248" gradientTransform="matrix(0.917 0 0 -0.917 218.9605 340.9179)">
					<stop  offset="0" style="stop-color:#FFB2C2"/>
					<stop  offset="1" style="stop-color:#F85E8A"/>
				</linearGradient>
				<path class="st3" d="M13.6-46.2c-7-2-48.2-9-49.9,19.9S-13.8,5.2-4.6,2.5C6.8-0.9,13.9-8.2,10.8-15.1c-2.2-5-7.9-5.4-12.6,0.3
					c-3.6,4.3-12.9,4.6-16.1-4.4S-13.9-38,0-37.6C22-37,31.8-24.8,25-5.9C15.3,20.9-22.3,36-45.5,6.9s-8.7-64.6,24.8-69.1
					C17.2-67.4,29.2-41.7,13.6-46.2z"/>
				<path class="st4" d="M23.5-43.3c-1.2,1.7,8.5,11.5,11.3,7.7C37.6-39.4,24.7-45,23.5-43.3z M-59.1-23.1c1.2-1.7-3.7-7.3-6.4-3.4
					S-60.3-21.3-59.1-23.1z"/>
				<path class="st5" d="M27.1-46.7c-1.8,1.6,4.5,3.7,5.3,1.3C33.1-47.7,28.2-47.8,27.1-46.7z M-33,21.3c-2.4,3.3,2.7,5.5,3.1,1.5
					C-29.5,20.5-31.6,19.5-33,21.3z"/>
				<path class="st6" d="M-59.9-19.1c-1.8-1.4-6.1-2.6-8.7-1c-2.2,1.3-2.2,8.4,6.2,4.7C-57.5-17.5-59-18.4-59.9-19.1z M14-56.4
					c2-1.6,3.2-3.3,2.5-5.1c-3.1-7.3-27.9-8.6-44.8,0.9c2.5-0.8,5.1-1.3,7.6-1.7C-4.1-64.5,7.5-60.9,14-56.4z"/>
				<path class="st6" d="M-40-50C-54.2-27.8-45.6-0.8-17.7,2.6c-9.7-2.2-19.8-9.9-18.7-28.9c1.3-22,25.6-23.2,40.1-21.6
					C-3.4-48.7,8.4-52,14-56.4c-6.5-4.4-18.1-8.1-34.7-5.8c-2.6,0.3-5.1,0.9-7.6,1.7C-33.1-58.1-37.1-54.5-40-50z"/>
				<path class="st4" d="M-45.5,6.9c-6.3-7.9-9.8-16.3-11-24.4c-6.2,10.5-8.3,21.5-3.8,29s16.1,9.3,29,7.2
					C-36.9,15.8-41.7,11.8-45.5,6.9z"/>
				<path class="st4" d="M10.8-8.3C8.8-3.8,3.1,0.2-4.6,2.5c-9.2,2.7-33.4,0.1-31.7-28.8c0.6-9.6,5.5-15.2,12-18.4
					c-13.8,5.1-25.4,15.8-32.2,27.1c1.1,8.1,4.6,16.5,11,24.4c3.8,4.9,8.6,9,14.1,11.9C-13.4,15.8,6.5,5.2,10.8-8.3z"/>
				<path class="st5" d="M25.6-24.9c2.2,5.1,2.1,11.5-0.6,19C21.3,4,14.2,12.2,5,17.4c5.8,0.2,11.6-0.6,17.1-2.6
					C38.2,9.1,37.5-11.4,25.6-24.9z"/>
				<path class="st5" d="M25-5.9c2.8-7.5,2.8-13.9,0.6-19C6.2-44.7-22.6-35.1-17.9-19.2c3.2,9,12.6,8.7,16.1,4.4
					c4.7-5.7,10.3-5.3,12.6-0.3c3.1,7-4,14.3-15.4,17.7C-13.8,5.3-38,2.7-36.3-26.2c0-0.2,0-0.4,0-0.7C-41-3.2-19.4,16.5,5,17.4
					C14.2,12.3,21.3,4,25-5.9z"/>
			</g>
		</g>
	</g>
	<g transform="translate(0,59.72901916503906)">
		<g transform="translate(0,0)">
			<g>
				<path class="st4" d="M-97.5-22.5H-83L-71.4,14l12.3-36.5h14.5v46.7h-9.5v-35l-12.2,35h-10.2l-11.6-35v35h-9.5V-22.5z M-27.1,3.4
					h19.7v7.3h-19.7l0,0c0.2,2.2,0.9,3.8,2.2,4.8l0,0l0,0c1.3,0.9,3.3,1.4,6.2,1.4l0,0h11.4v7.3h-12.5l0,0c-2.7,0-4.9-0.2-6.6-0.7
					l0,0l0,0c-1.7-0.5-3.3-1.3-4.8-2.4l0,0l0,0c-4.2-3.2-6.2-8-6.2-14.4l0,0l0,0c0-4.1,1.1-7.7,3.3-10.8l0,0l0,0
					c1.5-2.1,3.3-3.6,5.4-4.5l0,0l0,0c2.1-0.9,4.9-1.3,8.3-1.3l0,0h13.2v7.3h-12.5l0,0c-2.6,0-4.4,0.4-5.4,1.3l0,0l0,0
					C-26.3-0.5-26.9,1.1-27.1,3.4L-27.1,3.4z M-0.7,15.1h8.5v9.1h-8.5V15.1z M-0.7-1.3h8.5v9.1h-8.5V-1.3z M31.6-9.9h12.8v7.3H33.2
					l0,0c-3.8,0-6.4,0.8-7.8,2.5l0,0l0,0c-1.4,1.6-2.1,4-2.1,7.3l0,0l0,0c0,3.6,1.1,6.3,3.4,8l0,0l0,0c0.9,0.7,1.9,1.1,3,1.4l0,0
					l0,0c1.1,0.3,2.6,0.4,4.6,0.4l0,0h10.1v7.3H31.6l0,0c-3.5,0-6.2-0.4-8.2-1.1l0,0l0,0c-2-0.7-3.8-1.9-5.3-3.6l0,0l0,0
					c-2.9-3.3-4.4-7.4-4.4-12.5l0,0l0,0c0-6.1,1.8-10.6,5.3-13.6l0,0l0,0c1.4-1.2,3.1-2.1,5-2.6l0,0l0,0C25.9-9.7,28.5-9.9,31.6-9.9
					L31.6-9.9z M51.6,24.2V-9.9H61v34.1H51.6z M61-13.4h-9.4v-9.1H61V-13.4z M79.8-9.9h20v7.3H83.2l0,0c-1.9,0-3.1,0.1-3.6,0.3l0,0
					l0,0C78.5-2,78-1.1,78,0.4l0,0l0,0c0,1.2,0.5,2.1,1.5,2.8l0,0l0,0c0.6,0.4,2.1,0.6,4.6,0.6l0,0h5.5l0,0c3.5,0,6.3,0.7,8.4,2.2
					l0,0l0,0c2.3,1.7,3.4,4.2,3.4,7.4l0,0l0,0c0,2.5-0.7,4.7-2.1,6.8l0,0l0,0c-1,1.6-2.3,2.7-3.7,3.2l0,0l0,0
					c-1.5,0.5-3.9,0.8-7.4,0.8l0,0H68.8v-7.3h16.7l0,0c2.1,0,3.5,0,4.2-0.1l0,0l0,0c1.7-0.2,2.5-1.1,2.5-2.9l0,0l0,0
					c0-1.4-0.6-2.4-1.7-2.9l0,0l0,0c-0.6-0.3-1.9-0.4-4.1-0.4l0,0h-5.7l0,0c-2.2,0-4-0.1-5.1-0.4l0,0l0,0c-1.2-0.3-2.3-0.8-3.3-1.5
					l0,0l0,0c-1.3-0.9-2.3-2.1-3-3.7l0,0l0,0c-0.7-1.6-1.1-3.2-1.1-5l0,0l0,0c0-3.4,1.2-6.1,3.7-8.1l0,0l0,0
					C73.5-9.3,76.1-9.9,79.8-9.9L79.8-9.9z M116.7,3.4h19.7v7.3h-19.7l0,0c0.2,2.2,0.9,3.8,2.2,4.8l0,0l0,0c1.3,0.9,3.3,1.4,6.2,1.4
					l0,0h11.4v7.3H124l0,0c-2.7,0-4.9-0.2-6.6-0.7l0,0l0,0c-1.7-0.5-3.3-1.3-4.8-2.4l0,0l0,0c-4.2-3.2-6.2-8-6.2-14.4l0,0l0,0
					c0-4.1,1.1-7.7,3.3-10.8l0,0l0,0c1.5-2.1,3.3-3.6,5.4-4.5l0,0l0,0c2.1-0.9,4.9-1.3,8.3-1.3l0,0h13.2v7.3H124l0,0
					c-2.6,0-4.4,0.4-5.4,1.3l0,0l0,0C117.6-0.5,116.9,1.1,116.7,3.4L116.7,3.4z"/>
			</g>
		</g>
		<g transform="translate(0.00095367431640625,33.68000030517578)">
			<rect x="-97.5" y="11.8" class="st7" width="110.1" height="1.8"/>
			<g transform="translate(65.85835266113281,0)">
				<path class="st7" d="M-36.5,7.5L-36.5,7.5h-1.9l0,0c-0.1-1.9-1.4-2.9-3.8-3l0,0l0,0c-2.2,0.1-3.4,0.9-3.4,2.6l0,0l0,0
					c0,1.1,0.6,1.7,1.8,1.9l0,0l4.3,1l0,0c2.3,0.5,3.4,1.9,3.4,4.1l0,0l0,0c-0.1,2.8-2,4.2-5.9,4.3l0,0l0,0c-2.1,0-3.6-0.4-4.5-1.3
					l0,0l0,0c-1.1-0.8-1.6-2.1-1.6-3.8l0,0h2l0,0c0,2.3,1.4,3.5,4.1,3.5l0,0l0,0c2.6-0.1,4-0.9,4-2.5l0,0l0,0
					c0.2-1.4-0.9-2.3-3.3-2.7l0,0l-3.1-0.7l0,0c-2.1-0.6-3.2-1.8-3.2-3.6l0,0l0,0c0.2-3,1.9-4.5,5.3-4.6l0,0l0,0
					C-38.6,2.8-36.6,4.3-36.5,7.5z M-24.9,10.7L-24.9,10.7v7.5h-1.8v-6.7l0,0c0.1-2-0.7-3-2.4-2.9l0,0l0,0c-1.9,0.1-2.8,1.3-2.9,3.6
					l0,0v6h-1.9v-11h1.8v1.6l0,0c0.9-1.3,2-1.9,3.4-1.9l0,0l0,0C-26.2,6.9-24.9,8.2-24.9,10.7z M-20.4,10.5L-20.4,10.5h-1.7l0,0
					c0-2.5,1.5-3.7,4.5-3.7l0,0l0,0c2.6,0.1,4,1.1,4,3.1l0,0v6.3l0,0c0,0.4,0.2,0.7,0.7,0.7l0,0l0,0c0,0,0.1,0,0.2,0l0,0l0,0
					c0.2-0.1,0.3-0.1,0.4-0.1l0,0v1.3l0,0c-0.1,0-0.2,0-0.4,0l0,0l0,0c-0.3,0.1-0.5,0.1-0.7,0.1l0,0l0,0c-1.3,0-1.9-0.5-1.9-1.6l0,0
					l0,0c-1.1,1.1-2.4,1.6-4,1.6l0,0l0,0c-2.2-0.1-3.3-1.1-3.4-3l0,0l0,0c0-2,1.2-3.1,3.4-3.4l0,0l3-0.3l0,0c0.7-0.1,1-0.5,1-1.3
					l0,0l0,0c0-1.2-0.9-1.8-2.6-1.8l0,0l0,0C-19.5,8.4-20.3,9.1-20.4,10.5z M-15.4,14.4L-15.4,14.4v-1.8l0,0c-0.4,0.3-1.5,0.5-3,0.7
					l0,0l0,0c-1.5,0.1-2.3,0.7-2.3,1.7l0,0l0,0c0,1.3,0.6,1.9,1.9,1.9l0,0l0,0C-16.7,16.8-15.6,15.9-15.4,14.4z M-8.8,13.3
					L-8.8,13.3L-8.8,13.3c0.1,2.3,1.1,3.5,3,3.7l0,0l0,0c1.9-0.1,2.9-1.5,3-4.3l0,0l0,0c0.1-2.7-1-4.1-3-4.1l0,0l0,0
					C-7.9,8.6-8.8,10.1-8.8,13.3z M-8.8,22.4h-1.8V7.2h1.7v1.6h0.1l0,0c0,0,0,0,0.1-0.1l0,0l0,0c0.8-1.2,1.8-1.8,3.1-1.8l0,0l0,0
					c2.9,0.2,4.4,2,4.6,5.5l0,0l0,0c-0.2,3.9-1.8,5.9-4.8,6l0,0l0,0c-1.2,0-2.2-0.4-2.9-1.3l0,0h-0.1V22.4z M2.6,8.5H1.1V3.2h1.6
					V8.5z M14.1,10.7L14.1,10.7v7.5h-1.8v-6.7l0,0c0.1-2-0.7-3-2.4-2.9l0,0l0,0C8,8.7,7,9.9,7,12.2l0,0v6H5.1v-11h1.8v1.6l0,0
					c0.9-1.3,2-1.9,3.4-1.9l0,0l0,0C12.7,6.9,14,8.2,14.1,10.7z M24.1,12.7L24.1,12.7L24.1,12.7c0,2.8,1,4.2,2.9,4.3l0,0l0,0
					c1.9-0.2,2.9-1.4,3-3.7l0,0l0,0c0.1-3.1-0.9-4.7-3-4.7l0,0l0,0C25,8.6,24,10,24.1,12.7z M30,7.2h1.7v10.1l0,0
					c0.1,3.6-1.6,5.3-5,5.3l0,0l0,0c-2.6,0-4-1.1-4.3-3.3l0,0h1.9l0,0c0.2,1.2,1,1.8,2.5,1.8l0,0l0,0c2.2,0,3.2-1.2,3.1-3.7l0,0V17
					V17l0,0c-0.7,0.9-1.6,1.3-2.9,1.3l0,0l0,0c-3.1-0.1-4.7-2.1-4.8-6l0,0l0,0c0.2-3.5,1.7-5.3,4.6-5.5l0,0l0,0
					c1.4,0,2.5,0.6,3.3,1.9l0,0V7.2z M41.8,14.7L41.8,14.7h1.8l0,0c-0.2,1.3-0.9,2.3-2,3l0,0l0,0c-0.6,0.4-1.6,0.6-3,0.6l0,0l0,0
					c-3.1-0.1-4.8-1.9-4.9-5.3l0,0l0,0C33.9,9,35.6,7,39,6.9l0,0l0,0c3.1,0.1,4.7,2.2,4.8,6.5l0,0h-8.1l0,0c0,2.4,1.1,3.6,3.2,3.6
					l0,0l0,0C40.4,16.8,41.4,16.1,41.8,14.7z M35.7,11.9L35.7,11.9h6.2l0,0c-0.2-2.2-1.2-3.3-3.1-3.3l0,0l0,0
					C36.9,8.8,35.9,9.8,35.7,11.9z M50,7.2v1.6h-1.8v7.1l0,0c0,0.6,0.4,0.9,1.1,0.9l0,0H50v1.4l0,0c-0.3,0-0.7,0-1.2,0l0,0l0,0
					c-0.1,0-0.2,0-0.2,0l0,0l0,0c-1.6,0-2.4-0.7-2.3-2.1l0,0V8.7h-1.4V7.2h1.4v-3h1.9v3H50z M57.6,7.2h1.9v11h-1.9V7.2z M59.5,3.2v2
					h-1.9v-2H59.5z M66.2,7.2v1.6h-1.8v7.1l0,0c0,0.6,0.4,0.9,1.1,0.9l0,0h0.7v1.4l0,0c-0.3,0-0.7,0-1.2,0l0,0l0,0
					c-0.1,0-0.2,0-0.2,0l0,0l0,0c-1.6,0-2.4-0.7-2.3-2.1l0,0V8.7h-1.4V7.2h1.4v-3h1.9v3H66.2z M68.5,16h2v2.1h-2V16z M70.6,8.1
					l-0.5,6.5H69l-0.5-6.5V3.2h2V8.1z"/>
			</g>
		</g>
	</g>
</g>
</svg>
